<svg width="60" height="28" viewBox="0 0 60 28" fill="none" xmlns="http://www.w3.org/2000/svg">
<rect width="60" height="28" rx="6" fill="white"/>
<path d="M24.946 17.606H19.942L19.114 20H16.468L20.986 7.418H23.92L28.438 20H25.774L24.946 17.606ZM24.262 15.59L22.444 10.334L20.626 15.59H24.262ZM32.6468 11.576C32.9708 11.048 33.3908 10.634 33.9068 10.334C34.4348 10.034 35.0348 9.884 35.7068 9.884V12.53H35.0408C34.2488 12.53 33.6488 12.716 33.2408 13.088C32.8448 13.46 32.6468 14.108 32.6468 15.032V20H30.1268V10.028H32.6468V11.576ZM40.3381 12.098V16.922C40.3381 17.258 40.4161 17.504 40.5721 17.66C40.7401 17.804 41.0161 17.876 41.4001 17.876H42.5701V20H40.9861C38.8621 20 37.8001 18.968 37.8001 16.904V12.098H36.6121V10.028H37.8001V7.562H40.3381V10.028H42.5701V12.098H40.3381Z" fill="#FF512F"/>
</svg>
